<?xml version="1.0" encoding="UTF-8" standalone="no"?>
<!-- Created with Inkscape (http://www.inkscape.org/) -->

<svg
   xmlns:dc="http://purl.org/dc/elements/1.1/"
   xmlns:cc="http://creativecommons.org/ns#"
   xmlns:rdf="http://www.w3.org/1999/02/22-rdf-syntax-ns#"
   xmlns:svg="http://www.w3.org/2000/svg"
   xmlns="http://www.w3.org/2000/svg"
   xmlns:sodipodi="http://sodipodi.sourceforge.net/DTD/sodipodi-0.dtd"
   xmlns:inkscape="http://www.inkscape.org/namespaces/inkscape"
   version="1.1"
   id="svg2"
   xml:space="preserve"
   width="585"
   height="376"
   viewBox="0 0 585 376"
   sodipodi:docname="isitacloudthicc.svg"
   inkscape:version="0.92.5 (2060ec1f9f, 2020-04-08)"><metadata
     id="metadata8"><rdf:RDF><cc:Work
         rdf:about=""><dc:format>image/svg+xml</dc:format><dc:type
           rdf:resource="http://purl.org/dc/dcmitype/StillImage" /><dc:title></dc:title></cc:Work></rdf:RDF></metadata><defs
     id="defs6" /><sodipodi:namedview
     pagecolor="#ffffff"
     bordercolor="#666666"
     borderopacity="1"
     objecttolerance="10"
     gridtolerance="10"
     guidetolerance="10"
     inkscape:pageopacity="0"
     inkscape:pageshadow="2"
     inkscape:window-width="3840"
     inkscape:window-height="2110"
     id="namedview4"
     showgrid="false"
     inkscape:zoom="3.5505787"
     inkscape:cx="229.41169"
     inkscape:cy="188"
     inkscape:window-x="1920"
     inkscape:window-y="0"
     inkscape:window-maximized="1"
     inkscape:current-layer="g10" /><g
     id="g10"
     inkscape:groupmode="layer"
     inkscape:label="isitacloud"
     transform="matrix(1.3333333,0,0,1.3333333,0,9.4e-6)"><g
       id="g12"><g
         id="g14"><path
           d="m 281.867,2.703 c -33.734,-0.125 -64.996,18.106 -81.496,47.531 -11.644,-5.726 -24.449,-8.707 -37.426,-8.707 -46.5,0 -84.761,38.262 -84.765,84.762 0,1.258 0.031,2.512 0.086,3.766 -0.411,-0.008 -0.821,-0.012 -1.231,-0.012 -40.777,0 -74.332,33.559 -74.332,74.332 v 0.027 c 0,40.782 33.555,74.336 74.332,74.336 0.461,0 0.922,-0.004 1.387,-0.015 h 282.617 c 40.777,0 74.332,-33.555 74.332,-74.332 0,-38.203 -29.449,-70.5 -67.492,-74.016 4.41,-11.008 6.676,-22.758 6.672,-34.613 0.015,-50.914 -41.77,-92.867 -92.684,-93.059 z"
           style="fill:#ffffff;fill-opacity:1;fill-rule:nonzero;stroke:#00002b;stroke-width:4.50000011;stroke-linecap:butt;stroke-linejoin:miter;stroke-miterlimit:4;stroke-dasharray:none;stroke-opacity:1"
           id="path16"
           inkscape:connector-curvature="0" /></g><path
         d="m 94.758,209.355 c 0,5.329 -4.32,9.649 -9.653,9.649 -5.328,0 -9.652,-4.32 -9.652,-9.649 0,-5.332 4.324,-9.652 9.652,-9.652 5.333,0 9.653,4.32 9.653,9.652 z"
         style="fill:#000000;fill-opacity:1;fill-rule:evenodd;stroke:none"
         id="path18"
         inkscape:connector-curvature="0" /><path
         d="m 198.258,209.355 c 0,5.329 -4.32,9.649 -9.653,9.649 -5.328,0 -9.652,-4.32 -9.652,-9.649 0,-5.332 4.324,-9.652 9.652,-9.652 5.333,0 9.653,4.32 9.653,9.652 z"
         style="fill:#000000;fill-opacity:1;fill-rule:evenodd;stroke:none"
         id="path20"
         inkscape:connector-curvature="0" /><path
         d="m 156.234,199.777 c 0,0 -0.648,0.168 -1.714,0.688 -0.684,0.34 -1.426,0.836 -2.274,1.547 -0.73,0.609 -1.406,1.383 -2.058,2.343 -0.672,0.993 -1.243,2.192 -1.598,3.594 -0.289,1.149 -0.348,2.446 -0.309,3.852 0.278,3.039 1.059,5.347 2.199,7.051 2.391,3.578 5.59,4.515 5.59,4.515 0.348,0.149 0.754,-0.008 0.907,-0.351 0.152,-0.348 -0.004,-0.754 -0.352,-0.907 0,0 -2.148,-1.453 -3.309,-4.687 -0.523,-1.453 -0.75,-3.266 -0.468,-5.551 0.05,-0.609 0.172,-1.176 0.265,-1.723 0.098,-0.586 0.215,-1.136 0.328,-1.66 0.274,-1.265 0.563,-2.343 0.957,-3.281 1.161,-2.734 2.489,-4.223 2.489,-4.223 0.332,-0.175 0.457,-0.593 0.277,-0.925 -0.18,-0.336 -0.594,-0.457 -0.93,-0.282 z"
         style="fill:#000000;fill-opacity:1;fill-rule:evenodd;stroke:none"
         id="path22"
         inkscape:connector-curvature="0" /><path
         d="m 112.152,200.961 c 0,0 2.078,1.699 3.321,5.105 0.566,1.551 0.898,3.454 0.707,5.805 0.019,0.969 -0.106,1.84 -0.211,2.641 -0.196,1.535 -0.442,2.785 -0.91,3.82 -1.149,2.543 -2.649,3.805 -2.649,3.805 -0.332,0.148 -0.48,0.535 -0.336,0.867 0.149,0.328 0.535,0.48 0.864,0.332 0,0 1.808,-0.395 3.874,-2.082 0.711,-0.578 1.368,-1.328 2.004,-2.262 0.766,-1.121 1.403,-2.512 1.746,-4.215 0.184,-0.902 0.204,-1.902 0.176,-2.976 -0.066,-0.805 -0.144,-1.563 -0.308,-2.274 -0.453,-1.992 -1.168,-3.625 -2.055,-4.937 -2.465,-3.629 -5.602,-4.785 -5.602,-4.785 -0.32,-0.172 -0.718,-0.051 -0.886,0.265 -0.172,0.321 -0.055,0.719 0.265,0.891 z"
         style="fill:#000000;fill-opacity:1;fill-rule:evenodd;stroke:none"
         id="path24"
         inkscape:connector-curvature="0" /><path
         d="m 117.867,212.434 c 0,0 0.649,3.054 5.348,5.238 1.558,0.726 3.59,1.312 6.234,1.57 1.246,0.125 2.629,0.11 4.164,0.043 1.289,-0.137 2.5,-0.265 3.617,-0.469 2.063,-0.378 3.825,-0.855 5.348,-1.363 6.234,-2.09 8.34,-4.363 8.34,-4.363 0.441,-0.363 0.5,-1.012 0.141,-1.449 -0.364,-0.438 -1.012,-0.5 -1.45,-0.141 0,0 -1.816,1.047 -6.273,1.863 -1.418,0.262 -3.078,0.449 -5.035,0.653 -1.52,0.156 -3.203,0.339 -5.082,0.425 -1.324,0.161 -2.524,0.223 -3.61,0.25 -2.168,0.063 -3.863,-0.043 -5.226,-0.371 -3.528,-0.843 -4.571,-2.562 -4.571,-2.562 -0.187,-0.539 -0.777,-0.82 -1.312,-0.633 -0.539,0.184 -0.82,0.773 -0.633,1.309 z"
         style="fill:#000000;fill-opacity:1;fill-rule:evenodd;stroke:none"
         id="path26"
         inkscape:connector-curvature="0" /></g></g></svg>